<?xml version="1.0" encoding="UTF-8"?>
<svg xmlns="http://www.w3.org/2000/svg" xmlns:xlink="http://www.w3.org/1999/xlink" width="91px" height="51px" viewBox="0 0 91 51" version="1.1">
<g id="surface1">
<path style=" stroke:none;fill-rule:nonzero;fill:rgb(13.72549%,12.156863%,12.54902%);fill-opacity:1;" d="M 62.050781 37.183594 L 58.753906 37.179688 C 58.753906 37.179688 58.496094 37.191406 58.484375 36.878906 L 58.488281 28.21875 C 58.488281 27.800781 58.460938 27.632812 57.851562 27.632812 L 56.484375 27.632812 C 55.875 27.632812 55.847656 27.800781 55.847656 28.21875 L 55.847656 38.59375 C 55.847656 39.449219 56.078125 39.648438 56.875 39.648438 L 62.050781 39.648438 C 62.472656 39.648438 62.636719 39.625 62.636719 39.050781 L 62.636719 37.78125 C 62.636719 37.207031 62.46875 37.183594 62.050781 37.183594 "/>
<path style=" stroke:none;fill-rule:nonzero;fill:rgb(13.72549%,12.156863%,12.54902%);fill-opacity:1;" d="M 72.628906 33.121094 C 73.183594 32.789062 74.015625 31.867188 74.015625 30.664062 C 74.015625 30.59375 74.015625 30.519531 74.007812 30.449219 C 73.914062 28.746094 72.679688 27.628906 70.757812 27.628906 L 66.960938 27.628906 C 66.351562 27.628906 66.324219 27.800781 66.324219 28.222656 L 66.324219 39.050781 C 66.324219 39.476562 66.351562 39.648438 66.960938 39.648438 L 70.917969 39.648438 C 73.765625 39.648438 74.957031 37.972656 74.957031 36.105469 C 74.957031 34.640625 74.042969 33.402344 72.628906 33.121094 M 68.964844 29.96875 L 70.171875 29.96875 C 70.933594 29.96875 71.375 30.347656 71.375 31.074219 C 71.375 31.804688 70.917969 32.179688 70.171875 32.179688 L 68.964844 32.179688 Z M 70.628906 37.277344 L 68.964844 37.277344 L 68.964844 34.867188 L 70.628906 34.867188 C 71.410156 34.867188 72.222656 35.179688 72.222656 36.074219 C 72.222656 36.96875 71.507812 37.277344 70.628906 37.277344 "/>
<path style=" stroke:none;fill-rule:nonzero;fill:rgb(13.72549%,12.156863%,12.54902%);fill-opacity:1;" d="M 81.78125 30.105469 L 85.007812 30.105469 C 85.417969 30.105469 85.59375 30.078125 85.59375 29.507812 L 85.59375 28.226562 C 85.59375 27.652344 85.417969 27.632812 85.007812 27.632812 L 79.46875 27.625 C 79.054688 27.625 78.882812 27.652344 78.882812 28.265625 L 78.882812 39.007812 C 78.882812 39.625 79.050781 39.648438 79.46875 39.648438 L 85.007812 39.648438 C 85.417969 39.648438 85.59375 39.625 85.59375 39.050781 L 85.59375 37.78125 C 85.59375 37.207031 85.417969 37.1875 85.007812 37.1875 L 81.78125 37.179688 C 81.78125 37.179688 81.539062 37.191406 81.519531 36.894531 L 81.519531 34.960938 C 81.53125 34.742188 81.660156 34.695312 81.730469 34.6875 L 84.296875 34.6875 C 84.707031 34.6875 84.882812 34.65625 84.882812 34.085938 L 84.882812 33.046875 C 84.882812 32.472656 84.707031 32.453125 84.296875 32.453125 L 81.765625 32.453125 C 81.765625 32.453125 81.535156 32.464844 81.519531 32.167969 L 81.519531 30.394531 C 81.535156 30.097656 81.78125 30.105469 81.78125 30.105469 "/>
<path style=" stroke:none;fill-rule:nonzero;fill:rgb(13.72549%,12.156863%,12.54902%);fill-opacity:1;" d="M 31.867188 39.644531 C 32.480469 39.644531 32.503906 39.476562 32.503906 39.058594 L 32.503906 35.621094 C 32.503906 35.621094 32.5 35.488281 32.578125 35.472656 C 32.671875 35.449219 32.738281 35.558594 32.738281 35.558594 L 35.996094 39.363281 C 36.132812 39.519531 36.230469 39.652344 36.539062 39.652344 C 36.542969 39.652344 39.3125 39.652344 39.3125 39.652344 C 39.644531 39.652344 39.726562 39.480469 39.449219 39.089844 L 34.691406 33.847656 C 34.691406 33.847656 34.605469 33.75 34.605469 33.625 C 34.605469 33.5 34.695312 33.414062 34.695312 33.414062 L 39.242188 28.085938 C 39.433594 27.804688 39.355469 27.632812 39.023438 27.632812 L 36.519531 27.632812 C 36.214844 27.632812 36.117188 27.761719 35.976562 27.917969 L 32.667969 31.703125 C 32.667969 31.703125 32.628906 31.777344 32.558594 31.757812 C 32.507812 31.742188 32.507812 31.65625 32.507812 31.65625 L 32.507812 28.222656 C 32.507812 27.800781 32.484375 27.632812 31.871094 27.632812 L 30.496094 27.632812 C 29.882812 27.632812 29.851562 27.800781 29.851562 28.222656 L 29.851562 39.058594 C 29.851562 39.476562 29.878906 39.644531 30.496094 39.644531 Z M 31.867188 39.644531 "/>
<path style=" stroke:none;fill-rule:nonzero;fill:rgb(50.196078%,73.72549%,0%);fill-opacity:1;" d="M 19.195312 39.707031 C 18.945312 39.546875 18.972656 39.03125 18.898438 38.753906 C 17.023438 32.152344 7.125 29.878906 8.660156 22.378906 C 8.832031 21.542969 8.980469 20.636719 9.554688 19.832031 C 9.726562 19.59375 10.328125 19.265625 10.039062 20.230469 C 9.535156 21.882812 9.625 23.558594 11.320312 25.578125 C 12.160156 26.574219 13.578125 27.535156 15.675781 28.957031 C 19.742188 31.714844 20.226562 36.671875 20.011719 38.4375 C 19.929688 39.242188 19.792969 40.089844 19.195312 39.707031 "/>
<path style=" stroke:none;fill-rule:nonzero;fill:rgb(0%,39.607843%,28.235294%);fill-opacity:1;" d="M 12.46875 10.386719 C 12.640625 11.09375 13.125 12.105469 14.429688 12.910156 C 16.492188 14.1875 17.367188 15.125 17.695312 15.464844 C 20.105469 17.949219 19.828125 20.230469 19.191406 22.683594 C 18.957031 23.246094 19.238281 23.84375 19.894531 22.808594 C 20.632812 21.652344 21.054688 21.035156 21.375 19.652344 C 21.773438 17.933594 21.914062 15.617188 19.097656 13.328125 C 18.507812 12.84375 17.886719 12.433594 16.363281 11.898438 C 16.078125 11.796875 14.5 11.25 13.136719 10.199219 C 12.675781 9.84375 12.339844 9.875 12.46875 10.386719 "/>
<path style=" stroke:none;fill-rule:nonzero;fill:rgb(0%,39.607843%,28.235294%);fill-opacity:1;" d="M 19.027344 9.695312 C 19.140625 9.929688 19.117188 10.226562 19.039062 10.488281 C 18.921875 10.867188 18.753906 11.164062 18.363281 11.269531 C 18.140625 11.328125 17.835938 11.335938 17.59375 11.265625 C 16.925781 11.078125 16.625 10.480469 16.804688 9.878906 C 16.980469 9.277344 17.574219 8.890625 18.242188 9.074219 C 18.621094 9.183594 18.878906 9.386719 19.027344 9.695312 "/>
<path style=" stroke:none;fill-rule:nonzero;fill:rgb(0%,39.607843%,28.235294%);fill-opacity:1;" d="M 11.070312 32.472656 C 8.222656 35.542969 7.777344 38.960938 8.210938 42.167969 C 8.308594 42.914062 8.386719 43.644531 8.394531 44.019531 C 8.402344 44.472656 7.898438 44.667969 7.582031 44.203125 C 6.449219 42.550781 5.71875 40.617188 5.578125 39.558594 C 5.1875 36.527344 5.804688 33.179688 8.667969 30.222656 C 9.578125 29.285156 10.296875 28.753906 11.582031 27.976562 C 12.4375 27.460938 15.753906 26.304688 16.832031 25.84375 C 18.484375 25.140625 19.777344 24.167969 20.421875 23.410156 C 20.851562 22.90625 21.183594 23.019531 20.894531 23.773438 C 20.289062 25.371094 18.765625 27.308594 16.621094 28.722656 C 14.671875 29.996094 11.863281 31.617188 11.070312 32.472656 "/>
<path style=" stroke:none;fill-rule:nonzero;fill:rgb(0%,39.607843%,28.235294%);fill-opacity:1;" d="M 12.640625 23.195312 C 12.5 23.503906 12.464844 23.921875 12.558594 24.265625 C 12.703125 24.765625 12.988281 25.117188 13.46875 25.257812 C 13.75 25.335938 14.128906 25.339844 14.433594 25.25 C 15.269531 25.011719 15.648438 24.238281 15.421875 23.441406 C 15.199219 22.65625 14.457031 22.152344 13.625 22.394531 C 13.148438 22.527344 12.824219 22.792969 12.640625 23.195312 "/>
<path style=" stroke:none;fill-rule:nonzero;fill:rgb(50.196078%,73.72549%,0%);fill-opacity:1;" d="M 11.132812 20.992188 C 13.527344 16.613281 21.886719 16.601562 22.15625 9.941406 C 22.175781 9.464844 22.183594 8.941406 22.03125 8.40625 C 21.949219 8.105469 21.628906 7.851562 21.53125 8.464844 C 21.296875 9.871094 20.277344 12.542969 15.902344 14.671875 C 12.199219 16.476562 10.84375 18.941406 10.550781 20.597656 C 10.367188 21.640625 10.914062 21.394531 11.132812 20.992188 "/>
<path style=" stroke:none;fill-rule:nonzero;fill:rgb(13.72549%,12.156863%,12.54902%);fill-opacity:1;" d="M 48.34375 34.703125 C 48.308594 34.753906 48.203125 34.75 48.203125 34.75 L 45.902344 34.75 C 45.902344 34.75 45.800781 34.742188 45.757812 34.695312 C 45.714844 34.648438 45.746094 34.550781 45.746094 34.550781 L 46.242188 33.015625 L 46.992188 30.773438 C 46.992188 30.773438 47.019531 30.707031 47.058594 30.707031 C 47.105469 30.707031 47.125 30.773438 47.125 30.773438 L 48.34375 34.554688 C 48.34375 34.554688 48.382812 34.648438 48.34375 34.703125 M 52.648438 39.078125 L 48.585938 28.207031 C 48.394531 27.804688 48.347656 27.628906 47.738281 27.628906 L 46.359375 27.628906 C 45.75 27.628906 45.699219 27.804688 45.511719 28.207031 L 41.449219 39.078125 C 41.308594 39.464844 41.207031 39.648438 41.675781 39.648438 L 43.410156 39.648438 C 44.042969 39.652344 44.042969 39.683594 44.199219 39.292969 L 44.875 37.308594 C 44.875 37.308594 44.894531 37.234375 44.957031 37.199219 C 45.003906 37.167969 45.101562 37.167969 45.101562 37.167969 L 48.992188 37.167969 C 48.992188 37.167969 49.089844 37.167969 49.132812 37.199219 C 49.199219 37.234375 49.21875 37.308594 49.21875 37.308594 L 49.894531 39.292969 C 50.054688 39.683594 50.046875 39.652344 50.683594 39.648438 L 52.417969 39.648438 C 52.886719 39.648438 52.789062 39.464844 52.648438 39.078125 "/>
</g>
</svg>
